/* XPM */
static char *_8f3cc468c4a4658c2a905b7a47177fb210ayZALrG9NTb4Y[] = {
/* columns rows colors chars-per-pixel */
"35 35 175 2 ",
"   c #1E140F",
".  c #150E1E",
"X  c #1B131C",
"o  c #26180E",
"O  c #2D1B13",
"+  c #23161C",
"@  c #261A1D",
"#  c #2C1C1B",
"$  c #301E17",
"%  c #35200E",
"&  c #362115",
"*  c #362219",
"=  c #3D2518",
"-  c #130E24",
";  c #130D2B",
":  c #161123",
">  c #1E1422",
",  c #13112B",
"<  c #1B182E",
"1  c #0A0A34",
"2  c #08073B",
"3  c #070A3B",
"4  c #0A0B3D",
"5  c #130E33",
"6  c #140E3B",
"7  c #161235",
"8  c #221923",
"9  c #2B222C",
"0  c #362C2D",
"q  c #232136",
"w  c #3B3839",
"e  c #462A14",
"r  c #4D2D16",
"t  c #462F1F",
"y  c #4C2D18",
"u  c #512F16",
"i  c #4A301C",
"p  c #543116",
"a  c #593417",
"s  c #54341B",
"d  c #5B3518",
"f  c #5D391C",
"g  c #603717",
"h  c #603719",
"j  c #643A19",
"k  c #6C3E1A",
"l  c #432D20",
"z  c #493323",
"x  c #5A3D28",
"c  c #623D22",
"v  c #6F401B",
"b  c #74421B",
"n  c #7C461D",
"m  c #7F481E",
"M  c #674326",
"N  c #6A4325",
"B  c #6F492B",
"V  c #764926",
"C  c #7E4920",
"Z  c #744C2D",
"A  c #7B502F",
"S  c #030543",
"D  c #080744",
"F  c #060944",
"G  c #0B0B44",
"H  c #060A4A",
"J  c #0C0D4A",
"K  c #120D44",
"L  c #180F45",
"P  c #100E48",
"I  c #0D1045",
"U  c #0C114D",
"Y  c #141345",
"T  c #1A1445",
"R  c #1B1A46",
"E  c #12144B",
"W  c #171A48",
"Q  c #1C1C4A",
"!  c #070F51",
"~  c #0C0F51",
"^  c #0D1253",
"/  c #0D1659",
"(  c #131452",
")  c #191654",
"_  c #151C54",
"`  c #1A1B52",
"'  c #16155A",
"]  c #131B5B",
"[  c #1B1B5A",
"{  c #221546",
"}  c #231845",
"|  c #221A49",
" . c #1F2657",
".. c #1C235B",
"X. c #23234D",
"o. c #29284A",
"O. c #352D4C",
"+. c #3A3748",
"@. c #202854",
"#. c #2C2C52",
"$. c #26255C",
"%. c #27295C",
"&. c #302D5B",
"*. c #343554",
"=. c #3E3D53",
"-. c #33335D",
";. c #383A59",
":. c #0F1B60",
">. c #141F61",
",. c #1C1D63",
"<. c #1C1E69",
"1. c #152164",
"2. c #1A2565",
"3. c #14256E",
"4. c #182568",
"5. c #222664",
"6. c #242569",
"7. c #222C6A",
"8. c #2F2C6A",
"9. c #322A67",
"0. c #393862",
"q. c #262673",
"w. c #2A2B74",
"e. c #2A2C7D",
"r. c #223276",
"t. c #2C3979",
"y. c #3C367D",
"u. c #413C55",
"i. c #443D73",
"p. c #42424E",
"a. c #454355",
"s. c #47445D",
"d. c #4F4759",
"f. c #534F57",
"g. c #5A565D",
"h. c #665F5E",
"j. c #6E625C",
"k. c #424464",
"l. c #4F4B60",
"z. c #5C5963",
"x. c #5B506F",
"c. c #4A5071",
"v. c #53507E",
"b. c #615D72",
"n. c #6B6467",
"m. c #747066",
"M. c #656978",
"N. c #844B1E",
"B. c #8A4E1F",
"V. c #8E501F",
"C. c #834C21",
"Z. c #8A4E21",
"A. c #8D5122",
"S. c #83512B",
"D. c #945422",
"F. c #9B5723",
"G. c #9C5825",
"H. c #9E5B28",
"J. c #895B38",
"K. c #9E6A44",
"L. c #A36F46",
"P. c #AC764B",
"I. c #B97F52",
"U. c #897C67",
"Y. c #857D76",
"T. c #878278",
"R. c #998F71",
"E. c #98937B",
"W. c #363484",
"Q. c #393789",
"!. c #2E4188",
"~. c #4C4B8D",
"^. c #6B678C",
"/. c #857985",
"(. c #B2A684",
/* pixels */
"Y T K G ) 9.x.n.Q S D G K T D D K T O.} L L K K K D D P [ 0.) P D D S ",
"K K K ) 6.y./.(.*.D G D G G K L T d.U.o.L L K K K D K ~ c.T.8.' J D D ",
"K K E q.W.W.i.u.T D G J G 2 K 6 7 +.x.$.} } L L K D K >.t.i.6.,.( J D ",
"G J ,.W.Q.W.[ E J W W 7 8 + # $ s y 9 R { { L L L K L 7.5.-.$.<.,.( D ",
"D ( q.~.^.9.J D 5 < X e b V.V.D.F.F.n y # 8 6 5 X , $.5.-.R.l.' ,.] H ",
"D ~ q.v.Y.&.D 2 O v N.D.G.G.G.F.F.G.F.H.A.e   $ y i < ) T u.X.J 1.2.U ",
"D J ' 5.$.( D X k G.G.G.G.G.G.F.F.F.H.D.H.Z.C.D.Z.J.x ; D G D ^ 2.%.G ",
"D D G E [ L $ k F.F.G.G.G.G.G.G.H.F.k d k F.H.F.D.S.K.l 5 G U ( ^ Y H ",
"D D D ( ..@ n G.G.G.G.G.F.F.G.G.H.A.p B c k F.F.G.D.C.i . D P J G G F ",
"D D J >.< b F.F.G.G.F.F.G.G.F.F.F.F.k a h j F.G.G.F.D.% - Q | K G G K ",
"F J ] ..# A.F.F.F.F.G.F.F.G.G.G.F.F.F.C.k A.F.F.G.H.C.o , h.h.T D S S ",
"G U ] W = D.F.F.F.G.F.F.F.G.G.G.H.F.F.G.G.H.H.F.G.H.A.a @ O.O.K S S S ",
"G J U , j F.F.F.G.G.F.F.F.F.G.G.F.F.F.F.F.G.G.H.F.H.G.G.y 5 K D K D D ",
"F G G + B.F.A.V.V.V.F.F.F.F.G.F.F.H.F.F.G.F.F.G.F.G.F.G.g ; K K Q E H ",
"F I G X B.N.p a a j D.F.F.G.G.G.F.F.H.F.F.G.F.F.F.F.F.G.k ; P K J P ' ",
"F 4 G : b V.p f N a D.F.F.G.G.F.H.H.F.F.G.G.F.F.H.F.G.H.k - D D D P [ ",
"F F F : n H.C.f d b G.F.G.G.G.G.F.D.k j n F.F.F.F.F.F.F.u , G G G G J ",
"F F I X v D.H.D.D.G.G.G.G.G.G.H.F.C.x Z d k n D.G.F.F.N.+ T P K Y D D ",
"I U E X e V.G.G.F.G.G.G.G.G.F.F.F.C c P.K.A f n F.G.G.n - J E g.a.H S ",
"_ U @ a D.F.G.G.G.G.G.G.D.G.G.F.F.Z.j L.I.P.c N.G.F.F.N.> G Y z.s.H S ",
"r. .i S.G.G.G.G.G.F.D.H.F.F.F.G.F.F.j N L.L.f C.F.F.F.V.# 2 D H J / ~ ",
"!.t.z V G.G.G.G.F.G.F.G.F.F.F.F.F.F.D.k M N f D.G.F.F.b + 4 S S H / >.",
"r.!.0 B A.G.G.G.G.F.F.G.F.F.G.G.G.F.H.D.k k A.F.F.F.B.O 1 S S S S ! / ",
"4.r.o.* j m A.G.G.F.F.G.H.F.G.G.H.F.G.G.H.G.H.F.F.n O ; S F S S S S S ",
"U ....W :   = B.H.G.G.B.N.B.D.G.G.G.G.G.G.G.F.G.F.A.O 1 F I G 2 S S S ",
"F F I U I , = C A.G.G.j u s d N.G.G.G.G.F.G.G.F.F.n i - G W g.X.S S 2 ",
"S F F F I p.w @ @ r D.m a Z J.d A.G.G.G.G.D.V.D.N.A l 1 F Q n.#.S S S ",
"F F F 2 W p.*.I 4 , i G.B.f M a B.H.G.G.V.j O e e t : S F J E I S S S ",
"F F F W W @._ I G 4 : d m b v m F.H.D.V.= . 7 +.q 2 2 S S J ~ E J S S ",
"F F F F ! 1.! I G F 4 , : : + & p r & + 1 S F G H S S S H U ( J S S S ",
"2 S F F :.:.F F I U I G F I I 3 1 1 4 4 S S S S S S S S H ~ ~ H S S S ",
"S S W W 1./ F H ) ..g.@.I j.=.4 I F F #.f.G S S S S S S G %.5.~ H S S ",
"S S *.m.5.^ H D ^ 5.b.0.( ;.X.G F F S Q a.I S S S S S S X.E.M.4.:.! S ",
"S S T #.] U S S J ,.w.w.5.` Y D F F F F S S S 2 S S S S E z.k.1.3.:.H ",
"S S S S H S S S H J <.e.w.[ U F F 2 G H F S S S S G S S S D J H ! ! H "
};
