/* XPM */
static char *_8cd0fed5ac54ff9a8c0ece5b08db72cgrkrfYXB1DVwcveb[] = {
/* columns rows colors chars-per-pixel */
"35 35 116 2 ",
"   c #060743",
".  c #070845",
"X  c #090946",
"o  c #070C49",
"O  c #0C0B4B",
"+  c #110D4C",
"@  c #08124C",
"#  c #161545",
"$  c #14124F",
"%  c #19174A",
"&  c #0D0E52",
"*  c #0D0E59",
"=  c #120F51",
"-  c #0F1154",
";  c #0B1B54",
":  c #0E105A",
">  c #151155",
",  c #1C1353",
"<  c #15125B",
"1  c #19145D",
"2  c #241859",
"3  c #2C1C5E",
"4  c #0C255B",
"5  c #16215B",
"6  c #252347",
"7  c #28254D",
"8  c #312D4C",
"9  c #353249",
"0  c #3B374B",
"q  c #3E394A",
"w  c #28275A",
"e  c #0E1262",
"r  c #151462",
"t  c #1A1563",
"y  c #161862",
"u  c #1A1C66",
"i  c #15166C",
"p  c #17196B",
"a  c #1B1A6C",
"s  c #151771",
"d  c #161874",
"f  c #1C1C74",
"g  c #161A7C",
"h  c #1B1C7C",
"j  c #2E1F67",
"k  c #201B72",
"l  c #211E7C",
"z  c #0E2D61",
"x  c #172C6E",
"c  c #0E3467",
"v  c #0F3769",
"b  c #133567",
"n  c #143B6C",
"m  c #1F227E",
"M  c #173271",
"N  c #312169",
"B  c #212374",
"V  c #25277B",
"C  c #2F247F",
"Z  c #403C4A",
"A  c #124474",
"S  c #174679",
"D  c #174C7D",
"F  c #224572",
"G  c #234875",
"H  c #4B454C",
"J  c #55515C",
"K  c #69646A",
"L  c #1D1E82",
"P  c #201F80",
"I  c #222184",
"U  c #2B2486",
"Y  c #292B81",
"T  c #2D2588",
"R  c #262989",
"E  c #282C8E",
"W  c #312583",
"Q  c #312788",
"!  c #30328F",
"~  c #272B93",
"^  c #292D91",
"/  c #2B2F9B",
"(  c #2F3290",
")  c #343794",
"_  c #343798",
"`  c #2D32A1",
"'  c #3236A5",
"]  c #3B3FA5",
"[  c #3A3FB0",
"{  c #165D87",
"}  c #275A86",
"|  c #34658A",
" . c #3B7697",
".. c #3C41B9",
"X. c #414398",
"o. c #4E7696",
"O. c #4146BB",
"+. c #5157D5",
"@. c #555BDC",
"#. c #575DDD",
"$. c #6568C0",
"%. c #618CA6",
"&. c #6C96AD",
"*. c #6F96AD",
"=. c #7D9CB0",
"-. c #888280",
";. c #928C83",
":. c #938D88",
">. c #A09A92",
",. c #A49E96",
"<. c #8AA6B7",
"1. c #84A7B8",
"2. c #8BABBB",
"3. c #94AFBD",
"4. c #9DB4C1",
"5. c #D7D3CD",
/* pixels */
"          <   F z X X t         X             < @ %.,   1 O X p   o.x ",
"X         O.f @ +   a O ;   &         X ..X h ..  A   > y o y +.o n X ",
"      .   . o 1     X c 3.              `       @ N     . *.A . X j   ",
"  (   > & . P d     X   X   X >   a s =       * T .     . o . X Q &   ",
"    { } X & <       X = +   X   =.M L U =     1 O     - O =   < *     ",
"      . X   a   ,   . y =       4 X f I s     y . . .   + t X . X   + ",
"O t .     +         . X.<   > 1     X = s = + X         < X.X O       ",
"O > h X           &   i     = t *   a X   X           . . f           ",
"V   1 1   X   >           &     k O   X       X X <               =   ",
"  E       ,.q O W X             .   y       Z >.  y g                 ",
"  & f A   #     < d O X         X     s 1 @   #     t <           +   ",
"X P : *.@   =     O X >   i e   a   < l c G   X O     O   < O i O   < ",
"X &       i k         ! y O T t .   +       X I O       y (   d P O   ",
"    _     =       X         = d O   X &     + O                 = t   ",
"f                       +         . R                       2         ",
"V O   = t             = +   / '   X )     l O           + >   O #.=   ",
"    > d X   , X       y =     X 9 X X $ U & X + X       + y     r   7 ",
"  O a                           -.%   < < .                       8 K ",
"X O     O     < >           u X     O     -     X t X         1 1     ",
"L =       @   > > X X     X > > 1 a f       . o X >   X       = = 1 1 ",
"    3   = 2.n     > t   I .   > P +   O     S 1.      l + a .     l a ",
"          @ . .   X O O )     X X       X     @       X   C & -   X   ",
"r l         < %       O     L <       X ] O   > X Z       O   .   0   ",
"  +           J 0   = +       +     =   a .     # >.u   >         :.w ",
"#     = &   1 =     X   =   6     < i   X     O y     +   O   X y O   ",
";.H X W * V 1 =           # 5.# = l         ) = > X       X y & 1 O   ",
"    =   X f   t 1     ,     X   1           R   O l     , . < X   k O ",
"        . O t i   B     +           &   ~     = l X   & . X . > L & X ",
"+         & y       + s <   O         X $.O   t =     + r i X < 1     ",
"  B   ,       O   i P g O     &   +     a X       z O P L r     X 4 X ",
"O 1       X   | D g T r     > &     O   = X     ; 4.y U h O   X   <.x ",
"  h g       Y   1 h >         T *     O   X   B     P < O   . & X   f ",
"  . 1 X         X .   f .     . j     X {  .        .     m         . ",
"[ P o $   X           E & & @.& v O O f   >   o         & ^   o       ",
"-   b n O                   i   o.5 . O >         O               X   "
};
