/* XPM */
static char *_73a7220d5bf4c40a0ec23a59af864d00Nkln8V7KZIEcmUv[] = {
/* columns rows colors chars-per-pixel */
"64 64 16 1 ",
"  c #060743",
". c #171257",
"X c #301E61",
"o c #3B266F",
"O c #6E6550",
"+ c #776C5C",
"@ c #161B81",
"# c #232085",
"$ c #36298A",
"% c #2F318D",
"& c #3136AA",
"* c #17658D",
"= c #4347B4",
"- c #6268ED",
"; c #BBBAE6",
": c #E9E5E1",
/* pixels */
"              * X   ..                        * X   ..       * X",
"     .    &  *:*   .#.        .           &  *:*   .#.   &  *:* ",
"         &-&  *   .#.                &   &-&  *   .#.   &-&  *  ",
" @        &    X  ..  *%  @         &-&   &    X  ..  *% &    X ",
"             .o      *:*             &       .o      *:*    .o  ",
"      ..    @#.    X  *        ...          @#.    X  *    @#.  ",
"  =   .#   @$@             =   .#@..       @$@            @$@   ",
" .   *.@  .#@     %       .   *.@@@@.     .#@     %      .#@    ",
"    *:*.  ..        ...      *:*.@$$@.    ..        ...  ..     ",
"     * .            .#.       * .@$$@.              .#.         ",
"           =   X    ...          .@@@@.    =   X    ...   =   X ",
" ...                 &    ...     ..@@.              &          ",
" .#.     X.         &;&   .#.       ..@. X.         &;& X.      ",
" ...@                &    ...@   %    .              &          ",
"   @#..          %          @#..                 %              ",
"&   .#.      ..          &   .#.    X        ..             ..  ",
"          O  .@.                          O  .@.                ",
"  =      O:O  .$@                 =      O:O  .$@               ",
"    ..    O    $@.   .       X      ..    O    $@.   .       X  ",
"   @#.*         .@.                @#.*         .@.             ",
"  @$@*:*         ..     @.    =   @$@*:*         ..     @.    = ",
" .#@  *    ..        %  .@@.     .#@  *    ..        %  .@@.    ",
" ..       @#.       %=%  @$@.    ..       @#.       %=%  @$@.   ",
"         .#$         %   .@$.            .#$         %   .@$.   ",
"    =    ..               ..@.      =    ..               ..@.  ",
" .               .          ..   .               .          ..  ",
" &                     X         &                     X        ",
"&;&   ...                  &    &;&   ...                  &    ",
" &    .#.           ...   &-&    &    .#.           ...   &-&   ",
"     @...    .      .#.    &         @...    .      .#.    &  ..",
"   ..$@    X        ...       O    ..$@    X        ...       O ",
"   .#.                       +:O   .#.                       +:O",
"   ...                        O    ...                        O ",
"             ...         ...                 ...         ...    ",
" ..    %     .#.         .#.     ..    %     .#.         .#.    ",
"@#.          ...         .......@#.          ...         .......",
"$@       .*      ...        .##.$@       .*      ...        .##.",
"    X   .*:*     .#.  &     .##.    X   .*:*     .#.  &     .##.",
"     .    *      ... &;&    ....     .    *      ... &;&    ....",
"                      &  .                            &  .      ",
".#$        = .           .#$         %     = .            = .   ",
" @#.          O      .    @#.       %=%       O      .       O  ",
"  ..         O:O   ..      ..        %       O:O   ..       O:O ",
"              O %  ..            ..           O %  ..        O %",
"       .   ...    .             .@.        ...    .       ...   ",
" O    $@   .#.        %   O    $@.   .     .#.        %   .#.   ",
"O:O  .$@ & ...           O:O  .$@        & ...          & ...   ",
" O  .@. &;&.....      .   O  .@.        &;&.....      . ;&..... ",
"    ..   &   .#.    X        ..          &   .#.    X   &   .#. ",
"            @...                 %          @...           @... ",
"          ..#@   %    .              &    ..#@   %    .  ..#@   ",
"X.        .#.       ..@. X.         &;&   .#.       ..@. .#.    ",
"          ...     ..@@.              &    ...     ..@@.  ...    ",
"  =   X          .@@@@.    =   X    ...          .@@@@.         ",
"              * .@$$@.              .#.       * .@$$@.       * .",
" ..          *:*.@$$@.    ..        ...      *:*.@$$@.      *:*.",
" .#@      .   *.@@@@.     .#@     %       .   *.@@@@.    .   *.@",
"  @$@      =   .#@..       @$@             =   .#@..      =   .#",
"   @#.         ...          @#.    X  *        ...            ..",
"    .o               &       .o      *:*             &          ",
" &    X   @         &-&   &    X  ..  *%  @         &-&  @      ",
"&-&  *               &   &-&  *   .#.                &          ",
" &  *:*       .           &  *:*   .#.        .              .  ",
"     * X                      * X   ..                          "
};
